<svg width="1397" height="464" viewBox="0 0 1397 464" fill="none" xmlns="http://www.w3.org/2000/svg">
<path d="M288.168 294.841L117 438.5L14 320L283.47 95.7618H446.14V453.988H288.168V294.841Z" fill="#D9D9D9"/>
<path d="M485.486 453.988V95.7618H642.87V453.988H485.486Z" fill="#D9D9D9"/>
<path d="M679.28 453.988V95.7618H849.584L1032.22 240.814L1226.02 94H1387.51V451.639H1226.02V293.08L1032.22 445.179L836.665 291.318V453.988H679.28Z" fill="#D9D9D9"/>
<path d="M288.168 294.841L117 438.5L14 320L283.47 95.7618H446.14V453.988H288.168V294.841Z" stroke="#D9D9D9" stroke-width="19"/>
<path d="M485.486 453.988V95.7618H642.87V453.988H485.486Z" stroke="#D9D9D9" stroke-width="19"/>
<path d="M679.28 453.988V95.7618H849.584L1032.22 240.814L1226.02 94H1387.51V451.639H1226.02V293.08L1032.22 445.179L836.665 291.318V453.988H679.28Z" stroke="#D9D9D9" stroke-width="19"/>
<path d="M0 46H1397" stroke="#D9D9D9" stroke-width="40"/>
<path d="M1.112 13.5L4.682 3.7H6.81L10.408 13.5H8.616L7.79 11.148H3.702L2.876 13.5H1.112ZM4.178 9.804H7.314L5.746 5.324L4.178 9.804ZM11.4676 13.5V3.7H13.1616V13.5H11.4676ZM17.9071 13.5V3.7H20.3151L22.9471 11.442L25.5371 3.7H27.9311V13.5H26.3491V5.884L23.7171 13.5H22.1631L19.5031 5.926V13.5H17.9071ZM32.755 13.682C30.557 13.682 29.283 12.1 29.283 9.972C29.283 7.858 30.557 6.262 32.755 6.262C34.953 6.262 36.213 7.858 36.213 9.972C36.213 12.1 34.953 13.682 32.755 13.682ZM30.949 9.958C30.949 11.232 31.453 12.366 32.755 12.366C34.057 12.366 34.561 11.232 34.561 9.958C34.561 8.698 34.057 7.578 32.755 7.578C31.453 7.578 30.949 8.698 30.949 9.958ZM39.9752 13.682C38.4072 13.682 37.0212 12.282 37.0212 9.944C37.0212 7.634 38.4072 6.262 39.9752 6.262C40.9412 6.262 41.7812 6.682 42.2852 7.452V3.7H43.9092V13.5H42.2852V12.478C41.7252 13.304 40.9412 13.682 39.9752 13.682ZM38.6872 9.944C38.6872 11.316 39.3452 12.338 40.5072 12.338C41.6692 12.338 42.3412 11.316 42.3412 9.958C42.3412 8.6 41.6692 7.606 40.5072 7.606C39.3452 7.606 38.6872 8.586 38.6872 9.944ZM48.5723 13.682C46.4723 13.682 45.1423 12.1 45.1423 9.972C45.1423 7.858 46.4723 6.262 48.5723 6.262C50.4203 6.262 51.9323 7.326 51.8203 10.378H46.7663C46.8643 11.54 47.4103 12.408 48.5863 12.408C49.3843 12.408 49.9163 12.016 50.1403 11.288H51.7363C51.5123 12.632 50.4203 13.682 48.5723 13.682ZM46.7943 9.286H50.2243C50.1403 8.054 49.5523 7.522 48.5723 7.522C47.4943 7.522 46.9483 8.292 46.7943 9.286ZM53.0262 13.5V6.444H54.6502V7.648C55.0562 6.794 55.7142 6.444 56.6102 6.444H56.9882V7.984H56.4422C55.2382 7.984 54.6502 8.74 54.6502 10.084V13.5H53.0262ZM58.1258 13.5V6.444H59.7498V7.508C60.2258 6.71 61.1358 6.262 62.0878 6.262C63.6698 6.262 64.6078 7.284 64.6078 9.076V13.5H62.9838V9.272C62.9838 8.208 62.3958 7.62 61.4998 7.62C60.5058 7.62 59.7498 8.432 59.7498 9.524V13.5H58.1258ZM72.0616 13.682C69.8636 13.682 68.5896 12.1 68.5896 9.972C68.5896 7.858 69.8636 6.262 72.0616 6.262C74.2596 6.262 75.5196 7.858 75.5196 9.972C75.5196 12.1 74.2596 13.682 72.0616 13.682ZM70.2556 9.958C70.2556 11.232 70.7596 12.366 72.0616 12.366C73.3636 12.366 73.8676 11.232 73.8676 9.958C73.8676 8.698 73.3636 7.578 72.0616 7.578C70.7596 7.578 70.2556 8.698 70.2556 9.958ZM77.3238 13.5V7.69H76.1338V6.444H76.9738C77.1978 6.444 77.3238 6.318 77.3238 6.094V5.66C77.3238 4.414 77.9398 3.7 79.2278 3.7H80.7258V4.96H79.7038C79.1578 4.96 78.9478 5.226 78.9478 5.772V6.444H80.6138V7.69H78.9478V13.5H77.3238ZM84.7489 13.5V3.7H86.4429V8.642L90.8249 3.7H92.9109L89.2009 7.788L93.1349 13.5H91.1329L88.0669 9.048L86.4429 10.84V13.5H84.7489ZM94.0428 13.5V3.7H95.6668V7.606C96.1428 6.738 96.9968 6.262 98.0048 6.262C99.4888 6.262 100.427 7.228 100.427 9.076V13.5H98.8028V9.272C98.8028 8.208 98.2148 7.62 97.3748 7.62C96.4088 7.62 95.6668 8.46 95.6668 9.552V13.5H94.0428ZM103.876 13.682C102.49 13.682 101.594 12.87 101.594 11.638C101.594 9.986 103.022 9.594 104.212 9.398L105.57 9.202C106.088 9.118 106.214 8.852 106.214 8.53C106.214 7.956 105.822 7.494 104.954 7.494C104.114 7.494 103.568 7.886 103.47 8.656H101.846C102.042 7.088 103.288 6.262 104.968 6.262C106.872 6.262 107.824 7.172 107.824 8.88V11.904C107.824 12.1 107.964 12.226 108.16 12.226H108.538V13.5H107.502C106.788 13.5 106.34 13.15 106.34 12.604V12.45C105.724 13.346 104.8 13.682 103.876 13.682ZM103.246 11.47C103.246 12.1 103.708 12.45 104.408 12.45C105.528 12.45 106.214 11.526 106.214 10.364V9.986C106.004 10.098 105.808 10.14 105.57 10.196L104.52 10.378C103.638 10.532 103.246 10.868 103.246 11.47ZM109.628 13.5V6.444H111.252V7.648C111.658 6.794 112.316 6.444 113.212 6.444H113.59V7.984H113.044C111.84 7.984 111.252 8.74 111.252 10.084V13.5H109.628ZM114.769 13.5V3.7H116.393V9.51L119.123 6.444H121.041L118.577 9.146L121.489 13.5H119.599L117.499 10.294L116.393 11.47V13.5H114.769ZM122.275 13.5V6.444H123.913V13.5H122.275ZM122.219 5.394V3.7H123.969V5.394H122.219ZM127.447 13.5L124.871 6.444H126.621L128.413 11.834L130.205 6.444H131.969L129.393 13.5H127.447ZM136.147 15.824V3.7H139.661V4.988H137.687V14.55H139.661V15.824H136.147ZM144.968 13.682C142.602 13.682 141.048 12.408 141.048 9.846V3.7H142.77V9.79C142.77 11.512 143.708 12.226 144.968 12.226C146.214 12.226 147.124 11.512 147.124 9.79V3.7H148.846V9.846C148.846 12.408 147.32 13.682 144.968 13.682ZM150.549 13.5V3.7H152.173V9.51L154.903 6.444H156.821L154.357 9.146L157.269 13.5H155.379L153.279 10.294L152.173 11.47V13.5H150.549ZM158.026 13.5V6.444H159.65V7.648C160.056 6.794 160.714 6.444 161.61 6.444H161.988V7.984H161.442C160.238 7.984 159.65 8.74 159.65 10.084V13.5H158.026ZM164.839 13.682C163.453 13.682 162.557 12.87 162.557 11.638C162.557 9.986 163.985 9.594 165.175 9.398L166.533 9.202C167.051 9.118 167.177 8.852 167.177 8.53C167.177 7.956 166.785 7.494 165.917 7.494C165.077 7.494 164.531 7.886 164.433 8.656H162.809C163.005 7.088 164.251 6.262 165.931 6.262C167.835 6.262 168.787 7.172 168.787 8.88V11.904C168.787 12.1 168.927 12.226 169.123 12.226H169.501V13.5H168.465C167.751 13.5 167.303 13.15 167.303 12.604V12.45C166.687 13.346 165.763 13.682 164.839 13.682ZM164.209 11.47C164.209 12.1 164.671 12.45 165.371 12.45C166.491 12.45 167.177 11.526 167.177 10.364V9.986C166.967 10.098 166.771 10.14 166.533 10.196L165.483 10.378C164.601 10.532 164.209 10.868 164.209 11.47ZM170.619 13.5V6.444H172.257V13.5H170.619ZM170.563 5.394V3.7H172.313V5.394H170.563ZM173.845 13.5V6.444H175.469V7.508C175.945 6.71 176.855 6.262 177.807 6.262C179.389 6.262 180.327 7.284 180.327 9.076V13.5H178.703V9.272C178.703 8.208 178.115 7.62 177.219 7.62C176.225 7.62 175.469 8.432 175.469 9.524V13.5H173.845ZM184.895 13.682C182.795 13.682 181.465 12.1 181.465 9.972C181.465 7.858 182.795 6.262 184.895 6.262C186.743 6.262 188.255 7.326 188.143 10.378H183.089C183.187 11.54 183.733 12.408 184.909 12.408C185.707 12.408 186.239 12.016 186.463 11.288H188.059C187.835 12.632 186.743 13.682 184.895 13.682ZM183.117 9.286H186.547C186.463 8.054 185.875 7.522 184.895 7.522C183.817 7.522 183.271 8.292 183.117 9.286ZM189.054 15.824V14.55H191.042V4.988H189.054V3.7H192.568V15.824H189.054Z" fill="#D9D9D9"/>
<path d="M1270.17 13.182C1267.38 13.182 1265.48 11.194 1265.48 8.1C1265.48 4.978 1267.38 3.018 1270.17 3.018C1272.97 3.018 1274.86 4.992 1274.86 8.1C1274.86 11.194 1272.97 13.182 1270.17 13.182ZM1267.24 8.1C1267.24 10.284 1268.35 11.726 1270.17 11.726C1272 11.726 1273.09 10.284 1273.09 8.1C1273.09 5.888 1272 4.474 1270.17 4.474C1268.35 4.474 1267.24 5.888 1267.24 8.1ZM1280.11 13.182C1279.16 13.182 1278.36 12.804 1277.8 11.978V13H1276.18V3.2H1277.8V6.952C1278.3 6.182 1279.16 5.762 1280.11 5.762C1281.68 5.762 1283.06 7.134 1283.06 9.444C1283.06 11.782 1281.68 13.182 1280.11 13.182ZM1277.76 9.458C1277.76 10.816 1278.42 11.838 1279.58 11.838C1280.73 11.838 1281.4 10.816 1281.4 9.444C1281.4 8.086 1280.73 7.106 1279.58 7.106C1278.42 7.106 1277.76 8.1 1277.76 9.458ZM1283.94 15.324V14.078H1285.25C1285.66 14.078 1285.87 13.994 1286.02 13.616L1286.3 12.86L1283.42 5.944H1285.13L1287.07 10.886L1288.85 5.944H1290.55L1287.41 14.134C1287.02 15.156 1286.39 15.324 1285.56 15.324H1283.94ZM1294.01 13.182C1292.08 13.182 1290.93 12.258 1290.82 10.788H1292.46C1292.6 11.572 1293.14 11.936 1294.05 11.936C1294.85 11.936 1295.36 11.586 1295.36 11.04C1295.36 10.606 1295.03 10.326 1294.45 10.2L1293.03 9.92C1292 9.696 1291.02 9.178 1291.02 7.918C1291.02 6.63 1292.21 5.762 1293.9 5.762C1295.57 5.762 1296.74 6.462 1296.88 8.002H1295.26C1295.15 7.344 1294.66 6.994 1293.87 6.994C1293.14 6.994 1292.64 7.344 1292.64 7.834C1292.64 8.31 1293.03 8.534 1293.52 8.632L1295.03 8.926C1295.99 9.108 1297.01 9.654 1297.01 10.942C1297.01 12.356 1295.73 13.182 1294.01 13.182ZM1300.17 13L1303.74 3.2H1305.86L1309.46 13H1307.67L1306.84 10.648H1302.76L1301.93 13H1300.17ZM1303.23 9.304H1306.37L1304.8 4.824L1303.23 9.304ZM1313.35 15.52C1311.48 15.52 1310.32 14.652 1310.12 13.21H1311.76C1311.93 13.896 1312.44 14.26 1313.38 14.26C1314.28 14.26 1315.03 13.784 1315.03 12.552V11.544C1314.53 12.398 1313.75 12.762 1312.84 12.762C1311.21 12.762 1309.85 11.32 1309.85 9.234C1309.85 7.162 1311.21 5.762 1312.84 5.762C1313.76 5.762 1314.57 6.168 1315.03 6.952V5.944H1316.66V12.524C1316.66 14.708 1315.12 15.52 1313.35 15.52ZM1311.49 9.262C1311.49 10.55 1312.21 11.474 1313.28 11.474C1314.38 11.474 1315.1 10.55 1315.1 9.262C1315.1 7.96 1314.38 7.106 1313.28 7.106C1312.21 7.106 1311.49 7.96 1311.49 9.262ZM1321.28 13.182C1319.18 13.182 1317.85 11.6 1317.85 9.472C1317.85 7.358 1319.18 5.762 1321.28 5.762C1323.13 5.762 1324.64 6.826 1324.53 9.878H1319.48C1319.57 11.04 1320.12 11.908 1321.3 11.908C1322.09 11.908 1322.63 11.516 1322.85 10.788H1324.45C1324.22 12.132 1323.13 13.182 1321.28 13.182ZM1319.5 8.786H1322.93C1322.85 7.554 1322.26 7.022 1321.28 7.022C1320.2 7.022 1319.66 7.792 1319.5 8.786ZM1325.74 13V5.944H1327.36V7.008C1327.84 6.21 1328.75 5.762 1329.7 5.762C1331.28 5.762 1332.22 6.784 1332.22 8.576V13H1330.59V8.772C1330.59 7.708 1330.01 7.12 1329.11 7.12C1328.12 7.12 1327.36 7.932 1327.36 9.024V13H1325.74ZM1336.83 13.182C1334.7 13.182 1333.36 11.6 1333.36 9.472C1333.36 7.358 1334.7 5.762 1336.83 5.762C1338.58 5.762 1339.77 6.756 1339.98 8.464H1338.34C1338.17 7.582 1337.6 7.078 1336.81 7.078C1335.6 7.078 1335.02 8.17 1335.02 9.458C1335.02 10.76 1335.6 11.866 1336.81 11.866C1337.61 11.866 1338.13 11.46 1338.35 10.634H1339.98C1339.75 12.146 1338.66 13.182 1336.83 13.182ZM1341.02 15.324V14.078H1342.33C1342.74 14.078 1342.95 13.994 1343.1 13.616L1343.38 12.86L1340.5 5.944H1342.21L1344.15 10.886L1345.93 5.944H1347.63L1344.49 14.134C1344.1 15.156 1343.47 15.324 1342.64 15.324H1341.02ZM1356.58 13.56C1353.57 13.56 1351.31 11.264 1351.31 8.31C1351.31 5.37 1353.57 3.06 1356.58 3.06C1359.6 3.06 1361.86 5.37 1361.86 8.31C1361.86 11.264 1359.6 13.56 1356.58 13.56ZM1352.42 8.296C1352.42 10.746 1354.21 12.58 1356.58 12.58C1358.96 12.58 1360.74 10.746 1360.74 8.296C1360.74 5.846 1358.96 4.054 1356.58 4.054C1354.21 4.054 1352.42 5.846 1352.42 8.296ZM1353.96 8.282C1353.96 6.532 1355.04 5.328 1356.63 5.328C1358.09 5.328 1358.99 6.252 1359.08 7.442H1357.87C1357.8 6.91 1357.39 6.35 1356.65 6.35C1355.71 6.35 1355.18 7.12 1355.18 8.282C1355.18 9.43 1355.71 10.228 1356.65 10.228C1357.43 10.228 1357.87 9.654 1357.92 9.108H1359.14C1358.99 10.438 1358.06 11.264 1356.63 11.264C1355.02 11.264 1353.96 10.06 1353.96 8.282ZM1363.05 12.65C1363.05 10.872 1364.28 9.808 1365.54 8.898C1366.85 7.96 1368.19 7.19 1368.19 5.972C1368.19 5.006 1367.52 4.46 1366.57 4.46C1365.46 4.46 1364.84 5.146 1364.84 6.196H1363.15C1363.08 4.25 1364.52 2.99 1366.62 2.99C1368.55 2.99 1369.94 4.124 1369.94 5.874C1369.94 7.05 1369.27 7.918 1368.4 8.632C1367.11 9.696 1365.47 10.466 1365.12 11.586H1370.05V13H1363.05V12.65ZM1374.96 13.182C1372.56 13.182 1371.13 11.222 1371.13 8.1C1371.13 4.964 1372.56 3.032 1374.96 3.032C1377.35 3.032 1378.79 4.964 1378.79 8.1C1378.79 11.222 1377.35 13.182 1374.96 13.182ZM1372.87 8.1C1372.87 10.34 1373.51 11.754 1374.96 11.754C1376.41 11.754 1377.04 10.34 1377.04 8.1C1377.04 5.846 1376.41 4.46 1374.96 4.46C1373.51 4.46 1372.87 5.846 1372.87 8.1ZM1379.86 12.65C1379.86 10.872 1381.09 9.808 1382.35 8.898C1383.65 7.96 1384.99 7.19 1384.99 5.972C1384.99 5.006 1384.32 4.46 1383.37 4.46C1382.26 4.46 1381.65 5.146 1381.65 6.196H1379.95C1379.88 4.25 1381.33 2.99 1383.43 2.99C1385.36 2.99 1386.74 4.124 1386.74 5.874C1386.74 7.05 1386.07 7.918 1385.2 8.632C1383.92 9.696 1382.28 10.466 1381.93 11.586H1386.86V13H1379.86V12.65ZM1391.53 13.21C1388.93 13.21 1387.92 11.712 1387.87 9.934H1389.59C1389.67 10.9 1390.18 11.782 1391.51 11.782C1392.64 11.782 1393.41 11.278 1393.41 10.186C1393.41 9.248 1392.78 8.59 1391.73 8.59H1390.86V7.316H1391.67C1392.63 7.316 1393.26 6.644 1393.26 5.776C1393.26 4.922 1392.64 4.404 1391.6 4.404C1390.36 4.404 1389.76 5.244 1389.71 6.14H1388.02C1388.05 4.558 1389.15 2.99 1391.66 2.99C1393.87 2.99 1394.96 4.152 1394.96 5.552C1394.96 6.714 1394.26 7.554 1393.2 7.876C1394.22 8.072 1395.16 8.926 1395.16 10.284C1395.16 11.936 1393.86 13.21 1391.53 13.21Z" fill="#D9D9D9"/>
</svg>
