<svg width="233" height="37" viewBox="0 0 233 37" fill="none" xmlns="http://www.w3.org/2000/svg">
<path d="M17.5337 19.6003L7.36849 27.5971L2 21.0261L17.2795 9.09299H26.0788V28H17.5337V19.6003Z" fill="#D9D9D9"/>
<path d="M30.2071 28V9.09299H38.7205V28H30.2071Z" fill="#D9D9D9"/>
<path d="M42.69 28V9.09299H51.9022L61.7814 16.7488L72.2643 9H81V27.876H72.2643V19.5073L61.7814 27.5351L51.2033 19.4144V28H42.69Z" fill="#D9D9D9"/>
<path d="M17.5337 19.6003L7.36849 27.5971L2 21.0261L17.2795 9.09299H26.0788V28H17.5337V19.6003Z" stroke="#141414" stroke-width="2"/>
<path d="M30.2071 28V9.09299H38.7205V28H30.2071Z" stroke="#141414" stroke-width="2"/>
<path d="M42.69 28V9.09299H51.9022L61.7814 16.7488L72.2643 9H81V27.876H72.2643V19.5073L61.7814 27.5351L51.2033 19.4144V28H42.69Z" stroke="#141414" stroke-width="2"/>
<path d="M91.07 17L94.556 7.2H97.188L100.702 17H98.462L97.748 14.886H93.982L93.268 17H91.07ZM94.528 13.234H97.202L95.872 9.258L94.528 13.234ZM101.601 17V7.2H103.729V17H101.601ZM108.055 17V7.2H110.925L113.193 14.214L115.391 7.2H118.247V17H116.301V10.14L114.075 17H112.311L110.015 10.112V17H108.055ZM122.932 17.182C120.692 17.182 119.404 15.628 119.404 13.472C119.404 11.33 120.692 9.762 122.932 9.762C125.2 9.762 126.474 11.33 126.474 13.472C126.474 15.628 125.2 17.182 122.932 17.182ZM121.462 13.458C121.462 14.634 121.882 15.572 122.932 15.572C123.996 15.572 124.416 14.634 124.416 13.458C124.416 12.296 123.996 11.372 122.932 11.372C121.882 11.372 121.462 12.296 121.462 13.458ZM129.971 17.182C128.529 17.182 127.143 15.894 127.143 13.458C127.143 11.022 128.529 9.762 129.971 9.762C130.895 9.762 131.735 10.182 132.225 10.924V7.2H134.255V17H132.225V16.006C131.693 16.818 130.895 17.182 129.971 17.182ZM129.215 13.444C129.215 14.62 129.761 15.516 130.741 15.516C131.721 15.516 132.267 14.62 132.267 13.444C132.267 12.282 131.721 11.414 130.741 11.414C129.761 11.414 129.215 12.282 129.215 13.444ZM138.805 17.182C136.663 17.182 135.305 15.586 135.305 13.472C135.305 11.372 136.663 9.762 138.805 9.762C140.737 9.762 142.235 10.896 142.151 13.962H137.279C137.391 14.998 137.881 15.656 138.805 15.656C139.491 15.656 139.911 15.348 140.121 14.788H142.095C141.885 16.076 140.793 17.182 138.805 17.182ZM137.307 12.716H140.177C140.079 11.68 139.561 11.26 138.791 11.26C137.923 11.26 137.475 11.89 137.307 12.716ZM143.16 17V9.944H145.19V11.162C145.568 10.322 146.226 9.944 147.178 9.944H147.556V11.862H146.94C145.666 11.862 145.19 12.688 145.19 13.892V17H143.16ZM148.533 17V9.944H150.563V11.022C151.067 10.196 151.977 9.762 152.859 9.762C154.497 9.762 155.309 10.84 155.309 12.562V17H153.279V12.884C153.279 11.974 152.803 11.442 152.061 11.442C151.151 11.442 150.563 12.184 150.563 13.122V17H148.533ZM156.614 17V9.944H158.658V17H156.614ZM156.586 9.034V7.2H158.686V9.034H156.586ZM162.832 17.182C160.83 17.182 159.682 16.23 159.57 14.788H161.6C161.726 15.418 162.188 15.698 162.916 15.698C163.532 15.698 163.952 15.432 163.952 14.998C163.952 14.662 163.714 14.452 163.252 14.354L161.81 14.046C160.746 13.808 159.78 13.262 159.78 12.016C159.78 10.602 161.068 9.762 162.776 9.762C164.526 9.762 165.716 10.49 165.87 12.03H163.854C163.756 11.512 163.378 11.232 162.762 11.232C162.174 11.232 161.782 11.512 161.782 11.904C161.782 12.282 162.09 12.464 162.496 12.548L164.05 12.856C164.96 13.024 165.982 13.57 165.982 14.886C165.982 16.412 164.624 17.182 162.832 17.182ZM167.004 17V9.944H169.034V10.966C169.496 10.154 170.294 9.762 171.176 9.762C172.086 9.762 172.8 10.294 173.01 11.092C173.458 10.252 174.256 9.762 175.236 9.762C176.692 9.762 177.504 10.798 177.504 12.338V17H175.46V12.744C175.46 11.918 175.152 11.442 174.466 11.442C173.696 11.442 173.262 12.086 173.262 12.954V17H171.232V12.744C171.232 11.918 170.896 11.442 170.238 11.442C169.496 11.442 169.034 12.086 169.034 12.954V17H167.004ZM96.166 29.182C93.324 29.182 91.392 27.208 91.392 24.1C91.392 20.964 93.324 19.018 96.166 19.018C99.008 19.018 100.94 20.964 100.94 24.1C100.94 27.208 99.008 29.182 96.166 29.182ZM93.59 24.1C93.59 26.158 94.584 27.362 96.166 27.362C97.748 27.362 98.728 26.158 98.728 24.1C98.728 22.014 97.748 20.838 96.166 20.838C94.584 20.838 93.59 22.014 93.59 24.1ZM102.736 29V23.442H101.588V21.944H102.358C102.596 21.944 102.736 21.804 102.736 21.566V21.286C102.736 19.998 103.436 19.2 104.794 19.2H106.516V20.698H105.508C104.976 20.698 104.766 20.978 104.766 21.454V21.944H106.39V23.442H104.766V29H102.736ZM110.187 29V19.2H112.315V23.778L116.207 19.2H118.797L115.143 23.316L119.049 29H116.557L113.757 24.884L112.315 26.494V29H110.187ZM119.823 29V19.2H121.853V23.162C122.357 22.224 123.239 21.762 124.219 21.762C125.731 21.762 126.543 22.742 126.543 24.562V29H124.513V24.884C124.513 23.974 124.037 23.442 123.323 23.442C122.427 23.442 121.853 24.254 121.853 25.164V29H119.823ZM129.71 29.182C128.366 29.182 127.498 28.384 127.498 27.18C127.498 25.514 128.94 25.094 130.158 24.884L131.362 24.688C131.824 24.604 131.978 24.366 131.978 24.058C131.978 23.596 131.642 23.232 130.998 23.232C130.34 23.232 129.864 23.526 129.766 24.212H127.764C127.988 22.49 129.36 21.762 131.054 21.762C132.986 21.762 133.98 22.644 133.98 24.464V27.11C133.98 27.334 134.12 27.474 134.344 27.474H134.68V29H133.448C132.692 29 132.146 28.636 132.146 28.062V27.936C131.544 28.832 130.676 29.182 129.71 29.182ZM129.528 26.9C129.528 27.446 129.892 27.726 130.438 27.726C131.432 27.726 131.992 26.802 131.992 25.864V25.584C131.81 25.696 131.628 25.738 131.404 25.794L130.55 25.976C129.836 26.116 129.528 26.424 129.528 26.9ZM135.6 29V21.944H137.63V23.162C138.008 22.322 138.666 21.944 139.618 21.944H139.996V23.862H139.38C138.106 23.862 137.63 24.688 137.63 25.892V29H135.6ZM141.015 29V19.2H143.031V24.716L145.369 21.944H147.679L145.299 24.646L148.085 29H145.803L143.997 26.06L143.031 27.124V29H141.015ZM148.725 29V21.944H150.769V29H148.725ZM148.697 21.034V19.2H150.797V21.034H148.697ZM154.145 29L151.541 21.944H153.711L155.307 26.928L156.903 21.944H159.087L156.483 29H154.145ZM162.995 31.324V19.2H166.831V20.768H164.899V29.77H166.831V31.324H162.995ZM172.077 29.182C169.599 29.182 168.031 27.852 168.031 25.318V19.2H170.173V25.332C170.173 26.76 171.027 27.362 172.077 27.362C173.113 27.362 173.967 26.76 173.967 25.332V19.2H176.109V25.318C176.109 27.852 174.555 29.182 172.077 29.182ZM177.573 29V19.2H179.589V24.716L181.927 21.944H184.237L181.857 24.646L184.643 29H182.361L180.555 26.06L179.589 27.124V29H177.573ZM185.27 29V21.944H187.3V23.162C187.678 22.322 188.336 21.944 189.288 21.944H189.666V23.862H189.05C187.776 23.862 187.3 24.688 187.3 25.892V29H185.27ZM192.327 29.182C190.983 29.182 190.115 28.384 190.115 27.18C190.115 25.514 191.557 25.094 192.775 24.884L193.979 24.688C194.441 24.604 194.595 24.366 194.595 24.058C194.595 23.596 194.259 23.232 193.615 23.232C192.957 23.232 192.481 23.526 192.383 24.212H190.381C190.605 22.49 191.977 21.762 193.671 21.762C195.603 21.762 196.597 22.644 196.597 24.464V27.11C196.597 27.334 196.737 27.474 196.961 27.474H197.297V29H196.065C195.309 29 194.763 28.636 194.763 28.062V27.936C194.161 28.832 193.293 29.182 192.327 29.182ZM192.145 26.9C192.145 27.446 192.509 27.726 193.055 27.726C194.049 27.726 194.609 26.802 194.609 25.864V25.584C194.427 25.696 194.245 25.738 194.021 25.794L193.167 25.976C192.453 26.116 192.145 26.424 192.145 26.9ZM198.231 29V21.944H200.275V29H198.231ZM198.203 21.034V19.2H200.303V21.034H198.203ZM201.621 29V21.944H203.651V23.022C204.155 22.196 205.065 21.762 205.947 21.762C207.585 21.762 208.397 22.84 208.397 24.562V29H206.367V24.884C206.367 23.974 205.891 23.442 205.149 23.442C204.239 23.442 203.651 24.184 203.651 25.122V29H201.621ZM212.852 29.182C210.71 29.182 209.352 27.586 209.352 25.472C209.352 23.372 210.71 21.762 212.852 21.762C214.784 21.762 216.282 22.896 216.198 25.962H211.326C211.438 26.998 211.928 27.656 212.852 27.656C213.538 27.656 213.958 27.348 214.168 26.788H216.142C215.932 28.076 214.84 29.182 212.852 29.182ZM211.354 24.716H214.224C214.126 23.68 213.608 23.26 212.838 23.26C211.97 23.26 211.522 23.89 211.354 24.716ZM216.983 31.324V29.77H218.915V20.768H216.983V19.2H220.819V31.324H216.983Z" fill="#D9D9D9"/>
</svg>
