<svg width="1397" height="391" viewBox="0 0 1397 391" fill="none" xmlns="http://www.w3.org/2000/svg">
<path d="M288.168 210.841L117 354.5L14 236L283.47 11.7618H446.14V369.988H288.168V210.841Z" fill="#D9D9D9"/>
<path d="M485.486 369.988V11.7618H642.87V369.988H485.486Z" fill="#D9D9D9"/>
<path d="M679.28 369.988V11.7618H849.584L1032.22 156.814L1226.02 10H1387.51V367.639H1226.02V209.08L1032.22 361.179L836.665 207.318V369.988H679.28Z" fill="#D9D9D9"/>
<path d="M288.168 210.841L117 354.5L14 236L283.47 11.7618H446.14V369.988H288.168V210.841Z" stroke="#D9D9D9" stroke-width="19"/>
<path d="M485.486 369.988V11.7618H642.87V369.988H485.486Z" stroke="#D9D9D9" stroke-width="19"/>
<path d="M679.28 369.988V11.7618H849.584L1032.22 156.814L1226.02 10H1387.51V367.639H1226.02V209.08L1032.22 361.179L836.665 207.318V369.988H679.28Z" stroke="#D9D9D9" stroke-width="19"/>
<path d="M0 371H1397" stroke="#D9D9D9" stroke-width="40"/>
</svg>
